<svg width="25" height="20" viewBox="0 0 25 20" fill="none" xmlns="http://www.w3.org/2000/svg">
<rect y="1" width="25" height="19" rx="3" fill="url(#paint0_linear_274_198)"/>
<path d="M5.935 7.01C5.935 6.86267 6.16167 6.59067 6.615 6.194C7.06833 5.786 7.38567 5.582 7.567 5.582C7.75967 5.582 8.60967 6.23933 10.117 7.554C11.6357 8.85733 12.395 9.63933 12.395 9.9C12.395 10.1607 11.6357 10.9483 10.117 12.263C8.60967 13.5663 7.76533 14.218 7.584 14.218C7.40267 14.218 7.07967 14.014 6.615 13.606C6.16167 13.198 5.935 12.926 5.935 12.79C5.935 12.7447 6.14467 12.5577 6.564 12.229C8.04867 11.0843 8.97233 10.308 9.335 9.9C8.97233 9.492 8.315 8.91967 7.363 8.183C6.411 7.44633 5.935 7.05533 5.935 7.01Z" fill="#5B2157"/>
<path d="M13.77 15.5V14.38H18.992V15.5H13.77Z" fill="#5B2157"/>
<defs>
<linearGradient id="paint0_linear_274_198" x1="1.2931" y1="1" x2="12.5302" y2="19.9821" gradientUnits="userSpaceOnUse">
<stop offset="0.183222" stop-color="#9ADADB"/>
<stop offset="1" stop-color="#31BEB9"/>
</linearGradient>
</defs>
</svg>
