<svg width="142" height="91" viewBox="0 0 142 91" fill="none" xmlns="http://www.w3.org/2000/svg">
<rect x="40" y="20" width="80" height="53" rx="3" fill="#220347"/>
<path d="M40 23C40 21.3431 41.3431 20 43 20H117C118.657 20 120 21.3431 120 23V27H40V23Z" fill="#6B3DA1"/>
<rect x="46" y="34" width="9" height="2.4" rx="1.2" fill="#EE58EC"/>
<rect x="61" y="34" width="9" height="2.4" rx="1.2" fill="#EE58EC"/>
<rect x="46" y="41" width="9" height="2.4" rx="1.2" fill="white"/>
<rect x="85" y="41" width="27" height="2.4" rx="1.2" fill="white"/>
<rect x="58" y="41" width="21" height="2.4" rx="1.2" fill="#64D9B8"/>
<rect x="46" y="48" width="10" height="2.4" rx="1.2" fill="#64D9B8"/>
<rect x="61" y="48" width="20" height="2.4" rx="1.2" fill="#64D9B8"/>
<rect x="86" y="48" width="16" height="2.4" rx="1.2" fill="#64D9B8"/>
<rect x="46" y="55" width="23" height="2.4" rx="1.2" fill="#64D9B8"/>
<rect x="46" y="66" width="9" height="2.4" rx="1.2" fill="white"/>
<rect x="104" y="66" width="26.0667" height="12.4667" rx="1" fill="#0F172A"/>
<rect x="124.967" y="73.9335" width="13.0333" height="2.26667" rx="1.13333" fill="#884BEC"/>
<rect x="105.133" y="73.9335" width="13.0333" height="2.26667" rx="1.13333" fill="#1C2A4D"/>
<rect x="119.867" y="69.4" width="13.0333" height="2.26667" rx="1.13333" fill="#D45DA2"/>
<rect x="105.133" y="69.4" width="8.5" height="2.26667" rx="1.13333" fill="#D45DA2"/>
<circle cx="117.033" cy="70.5334" r="1.13333" fill="#D45DA2"/>
<g filter="url(#filter0_f_274_199)">
<rect x="1" y="42.4" width="16.8667" height="8.06667" rx="1" fill="#0F172A"/>
<rect x="14.5667" y="47.5334" width="8.43334" height="1.46667" rx="0.733334" fill="#884BEC"/>
<rect x="1.73315" y="47.5334" width="8.43334" height="1.46667" rx="0.733334" fill="#1C2A4D"/>
<rect x="11.2668" y="44.6001" width="8.43334" height="1.46667" rx="0.733334" fill="#D45DA2"/>
<rect x="1.73315" y="44.6001" width="5.5" height="1.46667" rx="0.733334" fill="#D45DA2"/>
<circle cx="9.43328" cy="45.3334" r="0.733334" fill="#D45DA2"/>
</g>
<rect x="11.3225" width="34.8387" height="24" rx="3" fill="#220347"/>
<line x1="9.5" y1="5.6936" x2="41.0161" y2="5.6936" stroke="#7E4AB0" stroke-linecap="round"/>
<circle cx="14.4192" cy="2.32253" r="0.774194" fill="#DD99D3"/>
<circle cx="17.5161" cy="2.32253" r="0.774194" fill="#8FE3CE"/>
<path d="M19.8386 15.5494V14.7166L22.495 13.3285V14.1614L20.6602 15.1088V15.1571L22.495 16.1046V16.9374L19.8386 15.5494Z" fill="#70ED9D"/>
<path d="M23.4686 17.8064L25.4516 12.3871H26.2732L24.2902 17.8064H23.4686Z" fill="#70ED9D"/>
<path d="M27.2468 16.1046L29.0815 15.1571V15.1088L27.2468 14.1614V13.3285L29.9031 14.7166V15.5494L27.2468 16.9374V16.1046Z" fill="#70ED9D"/>
<g filter="url(#filter1_f_274_199)">
<rect x="51" y="78" width="18.24" height="12" rx="3" fill="#220347"/>
<path d="M55.2926 81.8475C55.0976 81.8475 54.9539 81.875 54.8613 81.9302C54.7688 81.9834 54.7294 82.0808 54.7432 82.2226L54.8347 83.094C54.8407 83.1472 54.8436 83.1964 54.8436 83.2417C54.8436 83.5016 54.7629 83.6976 54.6014 83.8295C54.4419 83.9595 54.2135 84.0471 53.9161 84.0924C54.2253 84.1377 54.4567 84.2234 54.6103 84.3494C54.7658 84.4754 54.8436 84.6694 54.8436 84.9313C54.8436 84.9805 54.8407 85.0337 54.8347 85.0908L54.7432 85.9622C54.7412 85.974 54.7402 85.9907 54.7402 86.0124C54.7402 86.1345 54.7865 86.2192 54.8791 86.2664C54.9716 86.3137 55.1095 86.3373 55.2926 86.3373V86.9872C54.9559 86.9872 54.6831 86.9576 54.4744 86.8986C54.2676 86.8395 54.115 86.744 54.0165 86.612C53.9181 86.4801 53.8688 86.3048 53.8688 86.0862C53.8688 86.0469 53.8728 85.9838 53.8807 85.8972L53.9693 85.0524C53.9712 85.0347 53.9722 85.0091 53.9722 84.9756C53.9722 84.7925 53.9003 84.6625 53.7566 84.5857C53.6148 84.5089 53.4159 84.4705 53.1599 84.4705V83.7143C53.4139 83.7143 53.6128 83.6759 53.7566 83.5991C53.9003 83.5223 53.9722 83.3923 53.9722 83.2092C53.9722 83.1757 53.9712 83.1501 53.9693 83.1324L53.8807 82.2935C53.8728 82.2305 53.8688 82.1635 53.8688 82.0926C53.8688 81.8741 53.9181 81.6998 54.0165 81.5698C54.117 81.4398 54.2706 81.3453 54.4773 81.2862C54.6841 81.2272 54.9559 81.1976 55.2926 81.1976V81.8475Z" fill="#70ED9D"/>
<path d="M64.9201 81.8475C65.115 81.8475 65.2588 81.875 65.3513 81.9302C65.4439 81.9834 65.4833 82.0808 65.4695 82.2226L65.3779 83.094C65.372 83.1472 65.369 83.1964 65.369 83.2417C65.369 83.5016 65.4498 83.6976 65.6113 83.8295C65.7708 83.9595 65.9992 84.0471 66.2965 84.0924C65.9874 84.1377 65.756 84.2234 65.6024 84.3494C65.4468 84.4754 65.369 84.6694 65.369 84.9313C65.369 84.9805 65.372 85.0337 65.3779 85.0908L65.4695 85.9622C65.4714 85.974 65.4724 85.9907 65.4724 86.0124C65.4724 86.1345 65.4261 86.2192 65.3336 86.2664C65.241 86.3137 65.1032 86.3373 64.9201 86.3373V86.9872C65.2568 86.9872 65.5295 86.9576 65.7383 86.8986C65.945 86.8395 66.0977 86.744 66.1961 86.612C66.2946 86.4801 66.3438 86.3048 66.3438 86.0862C66.3438 86.0469 66.3399 85.9838 66.332 85.8972L66.2434 85.0524C66.2414 85.0347 66.2404 85.0091 66.2404 84.9756C66.2404 84.7925 66.3123 84.6625 66.4561 84.5857C66.5978 84.5089 66.7967 84.4705 67.0527 84.4705V83.7143C66.7987 83.7143 66.5998 83.6759 66.4561 83.5991C66.3123 83.5223 66.2404 83.3923 66.2404 83.2092C66.2404 83.1757 66.2414 83.1501 66.2434 83.1324L66.332 82.2935C66.3399 82.2305 66.3438 82.1635 66.3438 82.0926C66.3438 81.8741 66.2946 81.6998 66.1961 81.5698C66.0957 81.4398 65.9421 81.3453 65.7353 81.2862C65.5285 81.2272 65.2568 81.1976 64.9201 81.1976V81.8475Z" fill="#70ED9D"/>
<circle cx="57.575" cy="85.8475" r="0.636279" fill="#EE58EC"/>
<circle cx="60.1199" cy="85.8475" r="0.636279" fill="#EE58EC"/>
<circle cx="62.6651" cy="85.8475" r="0.636279" fill="#EE58EC"/>
</g>
<g filter="url(#filter2_f_274_199)">
<rect x="125" y="18" width="14" height="9.21053" rx="3" fill="#220347"/>
<path d="M128.295 20.9531C128.145 20.9531 128.035 20.9743 127.964 21.0166C127.893 21.0574 127.862 21.1322 127.873 21.2411L127.943 21.9099C127.948 21.9507 127.95 21.9885 127.95 22.0233C127.95 22.2228 127.888 22.3732 127.764 22.4744C127.642 22.5742 127.466 22.6414 127.238 22.6762C127.475 22.711 127.653 22.7767 127.771 22.8735C127.89 22.9702 127.95 23.1191 127.95 23.3201C127.95 23.3579 127.948 23.3987 127.943 23.4425L127.873 24.1113C127.871 24.1204 127.871 24.1333 127.871 24.1499C127.871 24.2436 127.906 24.3086 127.977 24.3449C128.048 24.3811 128.154 24.3993 128.295 24.3993V24.8981C128.036 24.8981 127.827 24.8754 127.667 24.8301C127.508 24.7847 127.391 24.7114 127.315 24.6101C127.24 24.5089 127.202 24.3743 127.202 24.2066C127.202 24.1763 127.205 24.128 127.211 24.0615L127.279 23.413C127.28 23.3994 127.281 23.3798 127.281 23.3541C127.281 23.2135 127.226 23.1138 127.116 23.0548C127.007 22.9959 126.854 22.9664 126.658 22.9664V22.386C126.853 22.386 127.005 22.3565 127.116 22.2976C127.226 22.2386 127.281 22.1389 127.281 21.9983C127.281 21.9726 127.28 21.953 127.279 21.9394L127.211 21.2955C127.205 21.2471 127.202 21.1957 127.202 21.1413C127.202 20.9735 127.24 20.8398 127.315 20.74C127.392 20.6403 127.51 20.5677 127.669 20.5224C127.828 20.477 128.036 20.4543 128.295 20.4543V20.9531Z" fill="#70ED9D"/>
<path d="M135.684 20.9531C135.834 20.9531 135.944 20.9743 136.015 21.0166C136.086 21.0574 136.117 21.1322 136.106 21.2411L136.036 21.9099C136.031 21.9507 136.029 21.9885 136.029 22.0233C136.029 22.2228 136.091 22.3732 136.215 22.4744C136.337 22.5742 136.513 22.6414 136.741 22.6762C136.504 22.711 136.326 22.7767 136.208 22.8735C136.089 22.9702 136.029 23.1191 136.029 23.3201C136.029 23.3579 136.031 23.3987 136.036 23.4425L136.106 24.1113C136.108 24.1204 136.108 24.1333 136.108 24.1499C136.108 24.2436 136.073 24.3086 136.002 24.3449C135.931 24.3811 135.825 24.3993 135.684 24.3993V24.8981C135.943 24.8981 136.152 24.8754 136.312 24.8301C136.471 24.7847 136.588 24.7114 136.664 24.6101C136.739 24.5089 136.777 24.3743 136.777 24.2066C136.777 24.1763 136.774 24.128 136.768 24.0615L136.7 23.413C136.699 23.3994 136.698 23.3798 136.698 23.3541C136.698 23.2135 136.753 23.1138 136.863 23.0548C136.972 22.9959 137.125 22.9664 137.321 22.9664V22.386C137.126 22.386 136.974 22.3565 136.863 22.2976C136.753 22.2386 136.698 22.1389 136.698 21.9983C136.698 21.9726 136.699 21.953 136.7 21.9394L136.768 21.2955C136.774 21.2471 136.777 21.1957 136.777 21.1413C136.777 20.9735 136.739 20.8398 136.664 20.74C136.587 20.6403 136.469 20.5677 136.31 20.5224C136.151 20.477 135.943 20.4543 135.684 20.4543V20.9531Z" fill="#70ED9D"/>
<circle cx="130.047" cy="24.0233" r="0.488372" fill="#EE58EC"/>
<circle cx="132" cy="24.0233" r="0.488372" fill="#EE58EC"/>
<circle cx="133.953" cy="24.0233" r="0.488372" fill="#EE58EC"/>
</g>
<rect x="117" y="38" width="25" height="19" rx="3" fill="url(#paint0_linear_274_199)"/>
<path d="M122.935 44.01C122.935 43.8627 123.162 43.5907 123.615 43.194C124.068 42.786 124.386 42.582 124.567 42.582C124.76 42.582 125.61 43.2393 127.117 44.554C128.636 45.8573 129.395 46.6393 129.395 46.9C129.395 47.1607 128.636 47.9483 127.117 49.263C125.61 50.5663 124.765 51.218 124.584 51.218C124.403 51.218 124.08 51.014 123.615 50.606C123.162 50.198 122.935 49.926 122.935 49.79C122.935 49.7447 123.145 49.5577 123.564 49.229C125.049 48.0843 125.972 47.308 126.335 46.9C125.972 46.492 125.315 45.9197 124.363 45.183C123.411 44.4463 122.935 44.0553 122.935 44.01Z" fill="#5B2157"/>
<path d="M130.77 52.5V51.38H135.992V52.5H130.77Z" fill="#5B2157"/>
<defs>
<filter id="filter0_f_274_199" x="0" y="41.4" width="24" height="10.0667" filterUnits="userSpaceOnUse" color-interpolation-filters="sRGB">
<feFlood flood-opacity="0" result="BackgroundImageFix"/>
<feBlend mode="normal" in="SourceGraphic" in2="BackgroundImageFix" result="shape"/>
<feGaussianBlur stdDeviation="0.5" result="effect1_foregroundBlur_274_199"/>
</filter>
<filter id="filter1_f_274_199" x="50" y="77" width="20.24" height="14" filterUnits="userSpaceOnUse" color-interpolation-filters="sRGB">
<feFlood flood-opacity="0" result="BackgroundImageFix"/>
<feBlend mode="normal" in="SourceGraphic" in2="BackgroundImageFix" result="shape"/>
<feGaussianBlur stdDeviation="0.5" result="effect1_foregroundBlur_274_199"/>
</filter>
<filter id="filter2_f_274_199" x="124" y="17" width="16" height="11.2106" filterUnits="userSpaceOnUse" color-interpolation-filters="sRGB">
<feFlood flood-opacity="0" result="BackgroundImageFix"/>
<feBlend mode="normal" in="SourceGraphic" in2="BackgroundImageFix" result="shape"/>
<feGaussianBlur stdDeviation="0.5" result="effect1_foregroundBlur_274_199"/>
</filter>
<linearGradient id="paint0_linear_274_199" x1="118.293" y1="38" x2="129.53" y2="56.9821" gradientUnits="userSpaceOnUse">
<stop offset="0.183222" stop-color="#9ADADB"/>
<stop offset="1" stop-color="#31BEB9"/>
</linearGradient>
</defs>
</svg>
