<svg width="25" height="18" viewBox="0 0 25 18" fill="none" xmlns="http://www.w3.org/2000/svg">
<g filter="url(#filter0_f_263_83)">
<rect x="1.47339" y="1.53845" width="22.3413" height="14.6982" rx="3" fill="#220347"/>
<path d="M6.73111 6.25104C6.49232 6.25104 6.31624 6.28481 6.20288 6.35235C6.08951 6.41747 6.04127 6.53687 6.05816 6.71053L6.17032 7.77785C6.17755 7.84297 6.18117 7.90327 6.18117 7.95875C6.18117 8.27714 6.08228 8.51713 5.88449 8.67874C5.68912 8.83793 5.40933 8.94527 5.04511 9.00074C5.4238 9.05622 5.70721 9.16114 5.89535 9.31551C6.0859 9.46988 6.18117 9.70746 6.18117 10.0283C6.18117 10.0886 6.17755 10.1537 6.17032 10.2236L6.05816 11.291C6.05575 11.3054 6.05454 11.3259 6.05454 11.3525C6.05454 11.502 6.11122 11.6057 6.22459 11.6636C6.33795 11.7215 6.50679 11.7504 6.73111 11.7504V12.5464C6.31866 12.5464 5.98459 12.5102 5.72892 12.4379C5.47566 12.3655 5.28872 12.2485 5.16812 12.0869C5.04752 11.9253 4.98722 11.7106 4.98722 11.4429C4.98722 11.3947 4.99205 11.3175 5.00169 11.2114L5.11024 10.1766C5.11265 10.1549 5.11385 10.1235 5.11385 10.0825C5.11385 9.85821 5.02581 9.69902 4.84974 9.60495C4.67607 9.51088 4.43246 9.46385 4.1189 9.46385V8.53763C4.43005 8.53763 4.67366 8.4906 4.84974 8.39653C5.02581 8.30246 5.11385 8.14327 5.11385 7.91895C5.11385 7.87795 5.11265 7.84659 5.11024 7.82488L5.00169 6.79736C4.99205 6.72018 4.98722 6.63817 4.98722 6.55134C4.98722 6.28361 5.04752 6.07014 5.16812 5.91095C5.29114 5.75176 5.47927 5.63598 5.73254 5.56362C5.9858 5.49126 6.31866 5.45508 6.73111 5.45508V6.25104Z" fill="#70ED9D"/>
<path d="M18.5233 6.25104C18.7621 6.25104 18.9382 6.28481 19.0515 6.35235C19.1649 6.41747 19.2131 6.53687 19.1962 6.71053L19.0841 7.77785C19.0768 7.84297 19.0732 7.90327 19.0732 7.95875C19.0732 8.27714 19.1721 8.51713 19.3699 8.67874C19.5653 8.83793 19.8451 8.94527 20.2093 9.00074C19.8306 9.05622 19.5472 9.16114 19.359 9.31551C19.1685 9.46988 19.0732 9.70746 19.0732 10.0283C19.0732 10.0886 19.0768 10.1537 19.0841 10.2236L19.1962 11.291C19.1986 11.3054 19.1999 11.3259 19.1999 11.3525C19.1999 11.502 19.1432 11.6057 19.0298 11.6636C18.9164 11.7215 18.7476 11.7504 18.5233 11.7504V12.5464C18.9357 12.5464 19.2698 12.5102 19.5255 12.4379C19.7787 12.3655 19.9657 12.2485 20.0863 12.0869C20.2069 11.9253 20.2672 11.7106 20.2672 11.4429C20.2672 11.3947 20.2623 11.3175 20.2527 11.2114L20.1442 10.1766C20.1417 10.1549 20.1405 10.1235 20.1405 10.0825C20.1405 9.85821 20.2286 9.69902 20.4047 9.60495C20.5783 9.51088 20.8219 9.46385 21.1355 9.46385V8.53763C20.8243 8.53763 20.5807 8.4906 20.4047 8.39653C20.2286 8.30246 20.1405 8.14327 20.1405 7.91895C20.1405 7.87795 20.1417 7.84659 20.1442 7.82488L20.2527 6.79736C20.2623 6.72018 20.2672 6.63817 20.2672 6.55134C20.2672 6.28361 20.2069 6.07014 20.0863 5.91095C19.9633 5.75176 19.7751 5.63598 19.5219 5.56362C19.2686 5.49126 18.9357 5.45508 18.5233 5.45508V6.25104Z" fill="#70ED9D"/>
<circle cx="9.52666" cy="11.1504" r="0.779348" fill="#EE58EC"/>
<circle cx="12.6438" cy="11.1504" r="0.779348" fill="#EE58EC"/>
<circle cx="15.7613" cy="11.1504" r="0.779348" fill="#EE58EC"/>
</g>
<defs>
<filter id="filter0_f_263_83" x="0.473389" y="0.538452" width="24.3413" height="16.6982" filterUnits="userSpaceOnUse" color-interpolation-filters="sRGB">
<feFlood flood-opacity="0" result="BackgroundImageFix"/>
<feBlend mode="normal" in="SourceGraphic" in2="BackgroundImageFix" result="shape"/>
<feGaussianBlur stdDeviation="0.5" result="effect1_foregroundBlur_263_83"/>
</filter>
</defs>
</svg>
