<svg width="20" height="14" viewBox="0 0 20 14" fill="none" xmlns="http://www.w3.org/2000/svg">
<g filter="url(#filter0_f_266_114)">
<rect x="1.11279" y="1.04724" width="17.1479" height="11.2815" rx="3" fill="#220347"/>
<path d="M5.1483 4.66441C4.96502 4.66441 4.82987 4.69032 4.74286 4.74216C4.65585 4.79215 4.61882 4.88379 4.63178 5.01708L4.71787 5.8363C4.72342 5.88628 4.7262 5.93256 4.7262 5.97515C4.7262 6.21952 4.65029 6.40373 4.49848 6.52777C4.34853 6.64995 4.13377 6.73234 3.85422 6.77492C4.14488 6.8175 4.36241 6.89803 4.50681 7.01652C4.65307 7.135 4.7262 7.31736 4.7262 7.56359C4.7262 7.60987 4.72342 7.65985 4.71787 7.71354L4.63178 8.53276C4.62993 8.54386 4.629 8.5596 4.629 8.57996C4.629 8.69475 4.67251 8.77435 4.75952 8.81879C4.84653 8.86322 4.97613 8.88543 5.1483 8.88543V9.49637C4.83172 9.49637 4.57531 9.4686 4.37907 9.41306C4.18468 9.35752 4.0412 9.26773 3.94864 9.14369C3.85607 9.01965 3.80979 8.85489 3.80979 8.64939C3.80979 8.61236 3.81349 8.55312 3.8209 8.47166L3.90421 7.67744C3.90606 7.66078 3.90698 7.63671 3.90698 7.60524C3.90698 7.43307 3.83941 7.31088 3.70426 7.23868C3.57097 7.16648 3.38398 7.13037 3.14331 7.13037V6.41946C3.38213 6.41946 3.56912 6.38336 3.70426 6.31116C3.83941 6.23896 3.90698 6.11677 3.90698 5.9446C3.90698 5.91313 3.90606 5.88906 3.90421 5.8724L3.8209 5.08373C3.81349 5.02449 3.80979 4.96154 3.80979 4.8949C3.80979 4.6894 3.85607 4.52556 3.94864 4.40337C4.04306 4.28118 4.18746 4.19232 4.38185 4.13678C4.57624 4.08124 4.83172 4.05347 5.1483 4.05347V4.66441Z" fill="#70ED9D"/>
<path d="M14.1996 4.66441C14.3829 4.66441 14.518 4.69032 14.605 4.74216C14.6921 4.79215 14.7291 4.88379 14.7161 5.01708L14.63 5.8363C14.6245 5.88628 14.6217 5.93256 14.6217 5.97515C14.6217 6.21952 14.6976 6.40373 14.8494 6.52777C14.9994 6.64995 15.2141 6.73234 15.4937 6.77492C15.203 6.8175 14.9855 6.89803 14.8411 7.01652C14.6948 7.135 14.6217 7.31736 14.6217 7.56359C14.6217 7.60987 14.6245 7.65985 14.63 7.71354L14.7161 8.53276C14.718 8.54386 14.7189 8.5596 14.7189 8.57996C14.7189 8.69475 14.6754 8.77435 14.5884 8.81879C14.5014 8.86322 14.3718 8.88543 14.1996 8.88543V9.49637C14.5162 9.49637 14.7726 9.4686 14.9688 9.41306C15.1632 9.35752 15.3067 9.26773 15.3993 9.14369C15.4918 9.01965 15.5381 8.85489 15.5381 8.64939C15.5381 8.61236 15.5344 8.55312 15.527 8.47166L15.4437 7.67744C15.4418 7.66078 15.4409 7.63671 15.4409 7.60524C15.4409 7.43307 15.5085 7.31088 15.6436 7.23868C15.7769 7.16648 15.9639 7.13037 16.2046 7.13037V6.41946C15.9658 6.41946 15.7788 6.38336 15.6436 6.31116C15.5085 6.23896 15.4409 6.11677 15.4409 5.9446C15.4409 5.91313 15.4418 5.88906 15.4437 5.8724L15.527 5.08373C15.5344 5.02449 15.5381 4.96154 15.5381 4.8949C15.5381 4.6894 15.4918 4.52556 15.3993 4.40337C15.3048 4.28118 15.1604 4.19232 14.9661 4.13678C14.7717 4.08124 14.5162 4.05347 14.1996 4.05347V4.66441Z" fill="#70ED9D"/>
<circle cx="7.29398" cy="8.42497" r="0.598184" fill="#EE58EC"/>
<circle cx="9.68632" cy="8.42497" r="0.598184" fill="#EE58EC"/>
<circle cx="12.0791" cy="8.42497" r="0.598184" fill="#EE58EC"/>
</g>
<defs>
<filter id="filter0_f_266_114" x="0.112793" y="0.0472412" width="19.1479" height="13.2815" filterUnits="userSpaceOnUse" color-interpolation-filters="sRGB">
<feFlood flood-opacity="0" result="BackgroundImageFix"/>
<feBlend mode="normal" in="SourceGraphic" in2="BackgroundImageFix" result="shape"/>
<feGaussianBlur stdDeviation="0.5" result="effect1_foregroundBlur_266_114"/>
</filter>
</defs>
</svg>
