<svg width="80" height="53" viewBox="0 0 80 53" fill="none" xmlns="http://www.w3.org/2000/svg">
<rect width="80" height="53" rx="3" fill="#220347"/>
<path d="M0 3C0 1.34315 1.34315 0 3 0H77C78.6569 0 80 1.34315 80 3V7H0V3Z" fill="#6B3DA1"/>
<rect x="6" y="14" width="9" height="2.4" rx="1.2" fill="#EE58EC"/>
<rect x="21" y="14" width="9" height="2.4" rx="1.2" fill="#EE58EC"/>
<rect x="6" y="21" width="9" height="2.4" rx="1.2" fill="white"/>
<rect x="45" y="21" width="27" height="2.4" rx="1.2" fill="white"/>
<rect x="18" y="21" width="21" height="2.4" rx="1.2" fill="#64D9B8"/>
<rect x="6" y="28" width="10" height="2.4" rx="1.2" fill="#64D9B8"/>
<rect x="21" y="28" width="20" height="2.4" rx="1.2" fill="#64D9B8"/>
<rect x="46" y="28" width="16" height="2.4" rx="1.2" fill="#64D9B8"/>
<rect x="6" y="35" width="23" height="2.4" rx="1.2" fill="#64D9B8"/>
<rect x="6" y="46" width="9" height="2.4" rx="1.2" fill="white"/>
</svg>
