<svg width="220" height="143" viewBox="0 0 220 143" fill="none" xmlns="http://www.w3.org/2000/svg">
<path d="M109.571 0.197919C148.806 0.197917 180.612 32.0042 180.612 71.2393C180.612 110.474 148.806 142.281 109.571 142.281C70.3356 142.281 38.5293 110.474 38.5293 71.2393C38.5293 32.0042 70.3356 0.19792 109.571 0.197919Z" fill="url(#paint0_radial_253_15)"/>
<path fill-rule="evenodd" clip-rule="evenodd" d="M45.9722 41.7487C40.8166 53.0913 37.2943 65.4464 40.7695 86.2972C42.1512 94.5877 46.0911 102.527 50.4742 109.058C54.8569 115.589 59.6596 120.677 62.7263 123.265L62.0815 124.029C58.9369 121.376 54.0733 116.216 49.6438 109.615C45.2147 103.016 41.1964 94.9416 39.7831 86.4616C36.2705 65.3864 39.8368 52.8303 45.0619 41.3349C50.9287 28.4274 65.1084 12.3201 82.0166 5.55684C84.9602 4.3794 93.1472 2.04017 96.6778 1.45173L96.8422 2.43812C93.3852 3.0143 85.2675 5.33352 82.388 6.48531C65.758 13.1373 51.7512 29.0346 45.9722 41.7487Z" fill="#872873"/>
<g filter="url(#filter0_d_253_15)">
<path fill-rule="evenodd" clip-rule="evenodd" d="M206.134 36.5539C210.056 30.6897 211.141 26.0959 210.1 22.8005C209.059 19.5052 205.689 16.8621 199.467 15.44C193.352 14.0425 185.002 13.957 174.953 15.1864C169.475 15.8567 163.519 16.9143 157.183 18.3479C156.68 17.8334 156.163 17.3101 155.63 16.778C186.017 9.72206 208.115 11.0891 211.605 22.1417C217.012 39.2668 175.7 73.1591 119.331 97.8424C62.9627 122.526 12.8832 128.653 7.47574 111.528C4.36404 101.673 16.7228 86.2664 38.5185 70.2573C38.5136 70.9688 38.5181 71.7094 38.5336 72.4773C36.0075 74.3519 33.6143 76.2164 31.364 78.0626C23.0746 84.8632 16.8002 91.3527 12.9465 97.1153C9.0248 102.979 7.93982 107.573 8.98037 110.869C10.0209 114.164 13.3911 116.807 19.6135 118.229C25.7282 119.627 34.0787 119.712 44.1272 118.483C64.1995 116.027 90.6764 108.373 118.772 96.0705C146.867 83.7678 171.158 69.1909 187.716 55.6066C196.006 48.806 202.28 42.3165 206.134 36.5539Z" fill="#767CE7"/>
<path fill-rule="evenodd" clip-rule="evenodd" d="M184.622 85.6771C189.122 83.8793 191.331 81.7113 191.712 79.4609C192.093 77.2105 190.72 74.4364 187.062 71.2584C185.318 69.7438 183.127 68.2017 180.527 66.6558C180.481 66.1688 180.427 65.6634 180.366 65.1393C188.99 70.1179 193.68 75.1855 192.922 79.6656C190.944 91.3603 152.592 94.6237 107.261 86.9545C61.9295 79.2852 26.7854 63.5876 28.7639 51.8929C29.503 47.5244 35.3175 44.3324 44.6752 42.4472C44.465 42.9003 44.2552 43.3619 44.0463 43.8318C41.3766 44.4075 39.0372 45.093 37.0639 45.8814C32.5641 47.6792 30.3547 49.8472 29.9739 52.0976C29.5932 54.348 30.9665 57.1221 34.6245 60.3001C38.2191 63.423 43.7199 66.663 50.7716 69.8127C64.8577 76.1045 84.8712 81.9219 107.465 85.7444C130.059 89.567 150.873 90.6567 166.244 89.3487C173.94 88.6939 180.2 87.4438 184.622 85.6771Z" fill="#767CE7"/>
</g>
<path fill-rule="evenodd" clip-rule="evenodd" d="M66.9401 128.152C68.7418 129.884 70.9584 131.392 72.6544 132.028C74.4143 132.688 76.4109 133.062 78.0208 133.221C78.8242 133.3 79.509 133.324 80 133.307C80.2485 133.299 80.4236 133.281 80.5299 133.263C80.5707 133.255 80.5882 133.25 80.5882 133.25C80.5882 133.25 80.5864 133.251 80.583 133.252C80.5751 133.255 80.548 133.265 80.5101 133.286C80.4746 133.305 80.4054 133.347 80.3307 133.421L81.7449 134.836C81.5628 135.018 81.3543 135.101 81.2504 135.138C81.1242 135.182 80.9947 135.211 80.878 135.232C80.6427 135.274 80.3642 135.296 80.0667 135.306C79.4659 135.326 78.6901 135.297 77.8241 135.211C76.0956 135.04 73.9189 134.638 71.9521 133.9C69.9213 133.139 67.4794 131.444 65.5544 129.594C64.585 128.663 63.7141 127.661 63.0782 126.678C62.4586 125.719 61.9863 124.662 61.9863 123.647L63.9863 123.647C63.9863 124.088 64.2129 124.749 64.7578 125.592C65.2865 126.41 66.0461 127.293 66.9401 128.152Z" fill="#6C1B58"/>
<path d="M71.8504 127.174C74.9595 129.46 76.4451 131.314 76.445 132.721C76.4448 134.129 71.3363 131.756 68.2272 129.47C65.1182 127.184 64.1511 125.394 64.1511 123.647C65.898 123.065 68.7414 124.888 71.8504 127.174Z" fill="#411351"/>
<defs>
<filter id="filter0_d_253_15" x="0" y="5.43359" width="219.08" height="122.802" filterUnits="userSpaceOnUse" color-interpolation-filters="sRGB">
<feFlood flood-opacity="0" result="BackgroundImageFix"/>
<feColorMatrix in="SourceAlpha" type="matrix" values="0 0 0 0 0 0 0 0 0 0 0 0 0 0 0 0 0 0 127 0" result="hardAlpha"/>
<feOffset/>
<feGaussianBlur stdDeviation="3.5"/>
<feComposite in2="hardAlpha" operator="out"/>
<feColorMatrix type="matrix" values="0 0 0 0 1 0 0 0 0 1 0 0 0 0 1 0 0 0 0.1 0"/>
<feBlend mode="normal" in2="BackgroundImageFix" result="effect1_dropShadow_253_15"/>
<feBlend mode="normal" in="SourceGraphic" in2="effect1_dropShadow_253_15" result="shape"/>
</filter>
<radialGradient id="paint0_radial_253_15" cx="0" cy="0" r="1" gradientUnits="userSpaceOnUse" gradientTransform="translate(53.4536 33.9617) rotate(39.0939) scale(154.616)">
<stop stop-color="#D3719A"/>
<stop offset="0.380793" stop-color="#A9348A"/>
<stop offset="0.647398" stop-color="#6C1B58"/>
<stop offset="1" stop-color="#2B1152"/>
</radialGradient>
</defs>
</svg>
