<svg width="384" height="383" viewBox="0 0 384 383" fill="none" xmlns="http://www.w3.org/2000/svg">
<mask id="mask0_266_111" style="mask-type:alpha" maskUnits="userSpaceOnUse" x="0" y="0" width="384" height="383">
<ellipse cx="192" cy="191.5" rx="192" ry="191.5" fill="url(#paint0_radial_266_111)"/>
</mask>
<g mask="url(#mask0_266_111)">
<path d="M357.656 117.295C358.672 116.278 358.266 104.183 354.607 94.426C350.948 84.6687 337.836 70.0326 330.213 70.0326" stroke="#84ADA0" stroke-width="2"/>
<circle r="186" transform="matrix(-1 0 0 1 193 192)" fill="#84ADA0"/>
<path d="M156.41 41.0654C146.674 53.7601 152.795 71.9676 174.176 88.3646C195.556 104.762 238.15 107.121 247.886 94.4258C257.621 81.7311 250.971 62.0364 229.59 45.6393C208.21 29.2423 166.146 28.3707 156.41 41.0654Z" fill="#5B756D"/>
<path opacity="0.6" d="M66.4594 192C57.3119 192 46.6393 204.198 46.6393 224.017C46.6393 243.836 55.7514 256.033 66.4594 256.033C72.5578 256.033 84.0771 255.444 86.2789 228.59C88.2789 204.197 75.6068 192 66.4594 192Z" fill="#5B756D"/>
<path opacity="0.6" d="M339.36 158.459C328.687 156.935 318.015 172.182 319.54 190.476C321.066 208.771 330.536 220.968 341.244 220.968C347.342 220.968 359.18 214.869 359.18 193.525C359.18 169.131 350.033 159.984 339.36 158.459Z" fill="#5B756D"/>
<path d="M180.803 298.721C180.803 306.344 193.257 312.443 203.672 312.443C214.087 312.443 226.541 307.141 226.541 298.721C226.541 290.301 216.302 285 203.672 285C191.042 285 180.803 291.098 180.803 298.721Z" fill="#5B756D"/>
<path d="M339.448 93.2407C345.434 101.381 350.286 105.27 353.971 105.27C357.656 105.27 351.445 91.8946 345.459 83.7545C339.473 75.6144 334.787 73.0824 330.213 73.0825C328.689 77.6561 333.462 85.1006 339.448 93.2407Z" fill="#5B756D"/>
<path d="M330.213 68.5084C316.492 52.2461 276.548 17.8921 232.639 10.5741C177.754 1.42654 145.143 10.7061 115.246 24.2954C81.7049 39.5409 39.8078 76.4397 22.2459 120.344C19.1967 127.967 13.0984 149.312 11.5738 158.459" stroke="#5B756D"/>
</g>
<defs>
<radialGradient id="paint0_radial_266_111" cx="0" cy="0" r="1" gradientUnits="userSpaceOnUse" gradientTransform="translate(321.5 297.5) rotate(-145.288) scale(326.632 327.485)">
<stop stop-color="#C4C4C4" stop-opacity="0.4"/>
<stop offset="1" stop-color="#C4C4C4" stop-opacity="0"/>
</radialGradient>
</defs>
</svg>
