<svg width="116" height="117" viewBox="0 0 116 117" fill="none" xmlns="http://www.w3.org/2000/svg">
<path d="M6.65566 35.7049C6.33872 35.3879 6.46547 31.6163 7.60645 28.5737C8.74744 25.5311 12.836 20.9672 15.213 20.9672" stroke="#84ADA0" stroke-width="2"/>
<circle cx="58" cy="59" r="58" fill="#84ADA0"/>
<path d="M69.4097 11.9344C72.4456 15.893 70.537 21.5705 63.8699 26.6836C57.2029 31.7967 43.921 32.5322 40.8851 28.5737C37.8493 24.6151 39.923 18.4737 46.5901 13.3607C53.2572 8.2476 66.3738 7.97581 69.4097 11.9344Z" fill="#5B756D"/>
<path opacity="0.6" d="M97.459 59C100.311 59 103.639 62.8037 103.639 68.9838C103.639 75.164 100.798 78.9673 97.459 78.9672C95.5573 78.9672 91.9652 78.7836 91.2787 70.4097C90.655 62.8033 94.6065 59 97.459 59Z" fill="#5B756D"/>
<path opacity="0.6" d="M12.3608 48.5411C15.6889 48.0657 19.017 52.8203 18.5413 58.5249C18.0656 64.2295 15.1125 68.033 11.7735 68.0329C9.87181 68.0329 6.18031 66.1312 6.18032 59.4755C6.18033 51.8688 9.0328 49.0164 12.3608 48.5411Z" fill="#5B756D"/>
<path d="M61.8033 92.2787C61.8033 94.6557 57.9199 96.5574 54.6722 96.5574C51.4245 96.5574 47.541 94.9043 47.541 92.2787C47.541 89.6531 50.7337 88 54.6722 88C58.6106 88 61.8033 89.9016 61.8033 92.2787Z" fill="#5B756D"/>
<path d="M12.3334 28.2041C10.4669 30.7424 8.95371 31.9553 7.80471 31.9552C6.65571 31.9551 8.59242 27.7843 10.459 25.246C12.3256 22.7077 13.7869 21.9182 15.2131 21.9182C15.6885 23.3444 14.2 25.6658 12.3334 28.2041Z" fill="#5B756D"/>
<path d="M35.1804 23.8197C35.3389 26.8306 36.1312 32.3771 38.5083 34.7541C41.6076 37.8534 45.164 39.5082 53.246 37.6066C59.7116 36.0853 66.399 29.6831 68.9345 26.6722C65.6066 29.8416 56.0985 36.7508 48.4919 35.2295C38.9837 33.3279 39.4591 32.3771 35.1804 23.8197Z" fill="#5B756D"/>
<path d="M89.8525 73.7377C89.5356 76.2732 89.9476 81.8196 94.1312 83.7213C98.3148 85.6229 101.941 82.295 103.164 80.3934C104.386 78.4918 105.066 76.1147 105.066 76.1147C103.919 78.1748 100.602 82.2 96.5082 81.8196C92.4149 81.4393 90.3655 76.2732 89.8525 73.7377Z" fill="#5B756D"/>
<path d="M46.7109 94.2156C47.5474 96.1355 49.2641 98.3834 52.295 98.9344C56.4787 99.6951 59.9016 97.9836 61.3278 97.0328C62.7541 96.082 63.1011 94.9049 63.1011 94.9049C61.7766 96.1929 58.7773 97.8242 53.7213 97.5082C49.6287 97.2524 47.6004 95.6921 46.7109 94.2156Z" fill="#5B756D"/>
<path d="M4.27876 62.3279C4.12029 64.388 4.564 69.1738 7.60663 71.8361C10.6492 74.4984 15.6886 71.8361 17.1148 70.4098C18.5411 68.9836 19.1711 65.886 19.1711 65.886C18.184 67.7216 15.6101 70.4098 10.9345 70.4098C5.60991 70.4098 4.27876 65.0219 4.27876 62.3279Z" fill="#5B756D"/>
<mask id="mask0_253_15" style="mask-type:alpha" maskUnits="userSpaceOnUse" x="0" y="1" width="116" height="116">
<circle cx="58" cy="59" r="58" fill="#C4C4C4"/>
</mask>
<g mask="url(#mask0_253_15)">
<path d="M6.65567 34.2786C2.06004 46.7978 0.267265 73.934 12.836 87.0491C23.7704 98.459 35.6557 108.443 60.8524 107.967C86.0491 107.492 99.836 89.9016 105.541 81.3442C111.246 72.7868 115.049 60.4262 115.049 51.3934C115.049 44.1672 117.902 62.3278 119.328 72.3114L95.5573 117L68.9344 122.229L23.7704 116.525L7.1311 100.836L-4.75415 68.5082L-3.80333 52.8196L3.32782 32.8524L6.65567 34.2786Z" fill="#5B756D"/>
</g>
<path d="M15.2131 20.4919C19.4918 15.4208 31.9476 4.7083 45.6394 2.42633C62.7541 -0.42613 72.9231 2.4675 82.2459 6.70502C92.7049 11.459 105.77 22.9651 111.246 36.6558C112.197 39.0329 114.098 45.6886 114.574 48.5411" stroke="#5B756D"/>
</svg>
