<svg width="61" height="61" viewBox="0 0 61 61" fill="none" xmlns="http://www.w3.org/2000/svg">
<path d="M55.5548 30.3026C55.5548 44.7139 43.8721 56.3966 29.4609 56.3966C15.0496 56.3966 3.36694 44.7139 3.36694 30.3026C3.36694 15.8914 15.0496 4.20874 29.4609 4.20874C43.8721 4.20874 55.5548 15.8914 55.5548 30.3026Z" fill="url(#paint0_radial_384_24)"/>
<mask id="mask0_384_24" style="mask-type:alpha" maskUnits="userSpaceOnUse" x="3" y="4" width="53" height="53">
<path d="M55.555 30.3026C55.555 44.7139 43.8724 56.3966 29.4611 56.3966C15.0498 56.3966 3.36719 44.7139 3.36719 30.3026C3.36719 15.8914 15.0498 4.20874 29.4611 4.20874C43.8724 4.20874 55.555 15.8914 55.555 30.3026Z" fill="#C4C4C4"/>
</mask>
<g mask="url(#mask0_384_24)">
<path d="M5.89209 14.3096L53.0295 14.3096V18.5183L5.89209 18.5183V14.3096Z" fill="#8A1F67"/>
<path d="M2.52515 30.3025L55.5547 30.3025V37.8781L2.52515 37.8781L2.52515 30.3025Z" fill="#8A1F67"/>
<path d="M5.89209 41.2454L54.713 41.2454V45.4541L5.89209 45.4541V41.2454Z" fill="#8A1F67"/>
</g>
<path opacity="0.8" fill-rule="evenodd" clip-rule="evenodd" d="M29.4279 4.20874C14.9772 4.54039 3.36694 16.0944 3.36694 30.299C3.36694 44.7123 15.3209 56.3966 30.0668 56.3966C30.1455 56.3966 30.2241 56.3962 30.3026 56.3956C19.193 52.6175 11.2198 42.2916 11.2198 30.1455C11.2198 18.3205 18.7769 8.22079 29.4279 4.20874Z" fill="#391962"/>
<path fill-rule="evenodd" clip-rule="evenodd" d="M58.5139 1.67537C58.1578 1.80724 57.7123 2.02945 57.1771 2.34014C55.3741 3.38669 49.2181 7.92697 46.4587 10.4185L45.4173 9.27646C48.2372 6.73032 54.4796 2.12052 56.3962 1.00806C56.9648 0.677988 57.4974 0.406325 57.9732 0.230106C58.4258 0.0624377 58.9364 -0.0615558 59.4121 0.032394C59.6688 0.0830913 59.9197 0.19844 60.1278 0.400874C60.3326 0.600186 60.4558 0.844893 60.5248 1.09387C60.6554 1.5656 60.6145 2.13672 60.4911 2.75061C60.4062 3.17268 60.1417 3.72117 59.8102 4.30737C59.4633 4.92075 58.9914 5.66249 58.4207 6.49966C57.2783 8.17558 55.7162 10.2685 53.9072 12.5429C50.2899 17.0906 45.6576 22.3981 41.3666 26.5903C40.8765 27.0691 40.368 27.566 39.8438 28.0783C31.2726 36.4551 18.5162 48.9222 13.7299 52.8514C7.51003 57.9575 3.86843 59.8828 2.97645 60.2243C2.45369 60.4245 1.97448 60.5665 1.5629 60.5985C1.15724 60.6301 0.619887 60.5639 0.271446 60.1013C-0.0361392 59.6929 -0.0236711 59.1845 0.0291881 58.8108C0.0870073 58.402 0.229541 57.9225 0.41889 57.3948C0.846026 56.2045 2.10743 54.1589 3.57389 52.0662C5.05925 49.9464 6.82312 47.6831 8.32317 46.0333L9.47241 47.068C8.02784 48.6567 6.30452 50.8656 4.84516 52.9482C3.3669 55.0578 2.22605 56.9447 1.87843 57.9134C1.69926 58.4127 1.5994 58.7745 1.56387 59.0257C1.56289 59.0326 1.56198 59.0393 1.56113 59.0458C1.74989 59.0137 2.02786 58.9352 2.41993 58.7851C3.07719 58.5334 6.56519 56.7339 12.7437 51.6618C17.4744 47.7783 30.1989 35.3426 38.7967 26.9401C39.3068 26.4416 39.8023 25.9573 40.2808 25.4898C44.5136 21.3545 49.1027 16.0982 52.6919 11.5858C54.4862 9.33008 56.0237 7.26885 57.1381 5.63397C57.6959 4.81575 58.1418 4.11293 58.4596 3.55102C58.7928 2.96194 58.94 2.60441 58.9714 2.44817C59.0699 1.95784 59.0657 1.67946 59.0397 1.54264C58.951 1.54729 58.7845 1.5751 58.5139 1.67537ZM1.34903 59.0618C1.34911 59.0617 1.35085 59.0619 1.35399 59.0625C1.35051 59.0621 1.34894 59.0618 1.34903 59.0618Z" fill="#64D9B8"/>
<defs>
<radialGradient id="paint0_radial_384_24" cx="0" cy="0" r="1" gradientUnits="userSpaceOnUse" gradientTransform="translate(53.7128 20.3256) rotate(155.951) scale(51.6017)">
<stop offset="0.00375941" stop-color="#711B5F"/>
<stop offset="0.479167" stop-color="#51164D"/>
<stop offset="1" stop-color="#471C5B"/>
</radialGradient>
</defs>
</svg>
