<svg width="95" height="56" viewBox="0 0 95 56" fill="none" xmlns="http://www.w3.org/2000/svg">
<path d="M68.8463 27.5454C68.8463 39.9058 58.6335 49.9259 46.0353 49.9259C33.4372 49.9259 23.2244 39.9058 23.2244 27.5454C23.2244 15.1849 33.4372 5.16479 46.0353 5.16479C58.6335 5.16479 68.8463 15.1849 68.8463 27.5454Z" fill="url(#paint0_radial_253_32)"/>
<path fill-rule="evenodd" clip-rule="evenodd" d="M73.1502 27.5453C73.1502 42.7582 60.8177 55.0906 45.6049 55.0906C30.392 55.0906 18.0596 42.7582 18.0596 27.5453C18.0596 12.3325 30.392 0 45.6049 0C60.8177 0 73.1502 12.3325 73.1502 27.5453ZM45.6049 50.0824C58.0518 50.0824 68.142 39.9922 68.142 27.5453C68.142 15.0984 58.0518 5.00824 45.6049 5.00824C33.158 5.00824 23.0678 15.0984 23.0678 27.5453C23.0678 39.9922 33.158 50.0824 45.6049 50.0824Z" fill="#0D1E38" fill-opacity="0.4"/>
<path d="M68.8463 27.5454C68.8463 39.9058 58.6335 49.9259 46.0353 49.9259C33.4372 49.9259 23.2244 39.9058 23.2244 27.5454C23.2244 15.1849 33.4372 5.16479 46.0353 5.16479C58.6335 5.16479 68.8463 15.1849 68.8463 27.5454Z" fill="url(#paint1_radial_253_32)"/>
<path fill-rule="evenodd" clip-rule="evenodd" d="M71.4285 27.9757C71.4285 42.0001 60.0595 53.3691 46.0352 53.3691C32.0108 53.3691 20.6418 42.0001 20.6418 27.9757C20.6418 13.9514 32.0108 2.5824 46.0352 2.5824C60.0595 2.5824 71.4285 13.9514 71.4285 27.9757ZM46.0352 50.6784C58.5735 50.6784 68.7378 40.5141 68.7378 27.9757C68.7378 15.4374 58.5735 5.27308 46.0352 5.27308C33.4969 5.27308 23.3325 15.4374 23.3325 27.9757C23.3325 40.5141 33.4969 50.6784 46.0352 50.6784Z" fill="#122849" fill-opacity="0.4"/>
<g filter="url(#filter0_d_253_32)">
<path fill-rule="evenodd" clip-rule="evenodd" d="M76.9742 21.3241C78.204 19.7625 78.5442 18.5392 78.2179 17.6616C77.8916 16.7841 76.8348 16.0803 74.8835 15.7016C72.966 15.3295 70.3474 15.3067 67.1963 15.6341C60.9018 16.288 52.599 18.3262 43.7886 21.6023C34.9782 24.8784 27.3609 28.7601 22.1684 32.3775C19.5689 34.1885 17.6014 35.9166 16.3929 37.4511C15.1631 39.0127 14.8228 40.236 15.1492 41.1135C15.4755 41.9911 16.5323 42.6949 18.4836 43.0736C20.4011 43.4457 23.0197 43.4685 26.1708 43.1411C32.4652 42.4872 40.7681 40.449 49.5785 37.1729C58.3889 33.8968 66.0062 30.0151 71.1987 26.3977C73.7981 24.5867 75.7657 22.8586 76.9742 21.3241ZM49.7539 37.6447C67.4305 31.0718 80.3855 22.0465 78.6897 17.4862C76.994 12.9259 61.2897 14.5575 43.6131 21.1305C25.9366 27.7034 12.9816 36.7287 14.6773 41.289C16.373 45.8493 32.0774 44.2177 49.7539 37.6447Z" fill="#767CE7"/>
</g>
<g filter="url(#filter1_d_253_32)">
<path fill-rule="evenodd" clip-rule="evenodd" d="M84.9979 21.8622C86.4797 19.832 86.9371 18.1102 86.464 16.754C85.9909 15.3979 84.5618 14.3343 82.1387 13.6662C79.7337 13.0032 76.4711 12.7672 72.5633 12.9679C64.7546 13.3688 54.4879 15.5061 43.6239 19.2961C32.7599 23.0861 23.3915 27.7986 17.0279 32.3417C13.8432 34.6153 11.4354 36.8294 9.96463 38.8446C8.48289 40.8748 8.02543 42.5966 8.49853 43.9527C8.97163 45.3089 10.4008 46.3725 12.8238 47.0405C15.2289 47.7036 18.4914 47.9395 22.3992 47.7389C30.208 47.338 40.4747 45.2007 51.3387 41.4107C62.2027 37.6207 71.571 32.9082 77.9347 28.365C81.1193 26.0914 83.5272 23.8774 84.9979 21.8622ZM51.5045 41.886C73.2966 34.2837 89.1613 22.9575 86.9393 16.5882C84.7174 10.2189 65.2501 11.2185 43.4581 18.8208C21.666 26.4231 5.80126 37.7493 8.02322 44.1186C10.2452 50.4878 29.7124 49.4883 51.5045 41.886Z" fill="#4E349D"/>
</g>
<path d="M67.9855 27.5789C60.0798 31.4662 56.7116 33.8648 44.3243 33.8648C31.5175 35.0227 23.2244 40.6566 23.2244 28.3233C23.2244 15.99 33.5014 5.16479 45.8887 5.16479C58.2759 5.16479 67.9855 15.2456 67.9855 27.5789Z" fill="url(#paint2_radial_253_32)"/>
<defs>
<filter id="filter0_d_253_32" x="7.52808" y="7.901" width="78.3108" height="42.9731" filterUnits="userSpaceOnUse" color-interpolation-filters="sRGB">
<feFlood flood-opacity="0" result="BackgroundImageFix"/>
<feColorMatrix in="SourceAlpha" type="matrix" values="0 0 0 0 0 0 0 0 0 0 0 0 0 0 0 0 0 0 127 0" result="hardAlpha"/>
<feOffset/>
<feGaussianBlur stdDeviation="3.5"/>
<feComposite in2="hardAlpha" operator="out"/>
<feColorMatrix type="matrix" values="0 0 0 0 1 0 0 0 0 1 0 0 0 0 1 0 0 0 0.1 0"/>
<feBlend mode="normal" in2="BackgroundImageFix" result="effect1_dropShadow_253_32"/>
<feBlend mode="normal" in="SourceGraphic" in2="effect1_dropShadow_253_32" result="shape"/>
</filter>
<filter id="filter1_d_253_32" x="0.815674" y="5.39526" width="93.3313" height="49.9163" filterUnits="userSpaceOnUse" color-interpolation-filters="sRGB">
<feFlood flood-opacity="0" result="BackgroundImageFix"/>
<feColorMatrix in="SourceAlpha" type="matrix" values="0 0 0 0 0 0 0 0 0 0 0 0 0 0 0 0 0 0 127 0" result="hardAlpha"/>
<feOffset/>
<feGaussianBlur stdDeviation="3.5"/>
<feComposite in2="hardAlpha" operator="out"/>
<feColorMatrix type="matrix" values="0 0 0 0 1 0 0 0 0 1 0 0 0 0 1 0 0 0 0.1 0"/>
<feBlend mode="normal" in2="BackgroundImageFix" result="effect1_dropShadow_253_32"/>
<feBlend mode="normal" in="SourceGraphic" in2="effect1_dropShadow_253_32" result="shape"/>
</filter>
<radialGradient id="paint0_radial_253_32" cx="0" cy="0" r="1" gradientUnits="userSpaceOnUse" gradientTransform="translate(65.9738 11.7961) rotate(135.614) scale(49.2973 49.2861)">
<stop stop-color="#8170D9"/>
<stop offset="0.249193" stop-color="#7E4AB0"/>
<stop offset="0.542338" stop-color="#7D3799"/>
<stop offset="0.697857" stop-color="#7B1F79"/>
<stop offset="1" stop-color="#3E1954"/>
</radialGradient>
<radialGradient id="paint1_radial_253_32" cx="0" cy="0" r="1" gradientUnits="userSpaceOnUse" gradientTransform="translate(65.9738 11.7961) rotate(135.614) scale(49.2973 49.2861)">
<stop stop-color="#8170D9"/>
<stop offset="0.249193" stop-color="#7E4AB0"/>
<stop offset="0.542338" stop-color="#7D3799"/>
<stop offset="0.697857" stop-color="#7B1F79"/>
<stop offset="1" stop-color="#3E1954"/>
</radialGradient>
<radialGradient id="paint2_radial_253_32" cx="0" cy="0" r="1" gradientUnits="userSpaceOnUse" gradientTransform="translate(65.2442 11.7815) rotate(135.194) scale(48.8242 48.8232)">
<stop stop-color="#8170D9"/>
<stop offset="0.249193" stop-color="#7E4AB0"/>
<stop offset="0.542338" stop-color="#7D3799"/>
<stop offset="0.697857" stop-color="#7B1F79"/>
<stop offset="1" stop-color="#3E1954"/>
</radialGradient>
</defs>
</svg>
